<mxfile host="app.diagrams.net" modified="2024-02-01T04:23:56.796Z" agent="Mozilla/5.0 (Macintosh; Intel Mac OS X 10_15_7) AppleWebKit/537.36 (KHTML, like Gecko) Chrome/120.0.0.0 Safari/537.36" version="23.1.0" etag="rzYb6ZNIz_AYLm7UWUho" type="github">
  <diagram name="페이지-1" id="MyfjuwpprRUDcRAUiV-t">
    <mxGraphModel>
      <root>
        <mxCell id="0" />
        <mxCell id="1" parent="0" />
      </root>
    </mxGraphModel>
  </diagram>
</mxfile>
